<svg width="92" height="92" viewBox="0 0 92 92" fill="none" xmlns="http://www.w3.org/2000/svg">
<path fill-rule="evenodd" clip-rule="evenodd" d="M23.3741 68.629C35.8718 81.1249 56.133 81.1235 68.629 68.6259C81.1249 56.1282 81.1235 35.8669 68.6259 23.371C56.1282 10.8751 35.8669 10.8765 23.371 23.3741C10.8751 35.8718 10.8765 56.1331 23.3741 68.629Z" fill="#EFEFEF"/>
<path fill-rule="evenodd" clip-rule="evenodd" d="M48.9995 47.0016C47.8949 47.001 46.999 47.896 46.9984 49.0005L46.9957 54.0005C46.9954 54.5528 46.5474 55.0003 45.9951 55C45.4429 54.9997 44.9954 54.5517 44.9957 53.9995L44.9984 48.9995C44.999 47.8949 44.104 46.999 42.9995 46.9984L37.9995 46.9957C37.4472 46.9954 36.9997 46.5474 37 45.9951C37.0003 45.4429 37.4483 44.9954 38.0005 44.9957L43.0005 44.9984C44.1051 44.999 45.001 44.104 45.0016 42.9995L45.0043 37.9995C45.0046 37.4472 45.4526 36.9997 46.0049 37C46.5571 37.0003 47.0046 37.4483 47.0043 38.0005L47.0016 43.0005C47.001 44.1051 47.896 45.001 49.0005 45.0016L54.0005 45.0043C54.5528 45.0046 55.0003 45.4526 55 46.0049C54.9997 46.5571 54.5517 47.0046 53.9995 47.0043L48.9995 47.0016Z" fill="#006CFF"/>
</svg>
