<svg width="64" height="64" viewBox="0 0 64 64" fill="none" xmlns="http://www.w3.org/2000/svg">
<rect width="64" height="64" fill="#F8F8F8"/>
<rect width="375" height="297" transform="translate(-254 -178)" fill="white"/>
<path fill-rule="evenodd" clip-rule="evenodd" d="M32 64C49.6731 64 64 49.6731 64 32C64 14.3269 49.6731 0 32 0C14.3269 0 0 14.3269 0 32C0 49.6731 14.3269 64 32 64Z" fill="#EEEEEE"/>
<path fill-rule="evenodd" clip-rule="evenodd" d="M33 29C33 30.1046 33.8954 31 35 31H40C40.5523 31 41 31.4477 41 32C41 32.5523 40.5523 33 40 33H35C33.8954 33 33 33.8954 33 35V40C33 40.5523 32.5523 41 32 41C31.4477 41 31 40.5523 31 40V35C31 33.8954 30.1046 33 29 33H24C23.4477 33 23 32.5523 23 32C23 31.4477 23.4477 31 24 31H29C30.1046 31 31 30.1046 31 29V24C31 23.4477 31.4477 23 32 23C32.5523 23 33 23.4477 33 24V29Z" fill="#006CFF"/>
</svg>
