<svg width="92" height="92" viewBox="0 0 92 92" fill="none" xmlns="http://www.w3.org/2000/svg">
<path fill-rule="evenodd" clip-rule="evenodd" d="M68.6274 68.6274C81.1242 56.1306 81.1242 35.8694 68.6274 23.3726C56.1306 10.8758 35.8693 10.8758 23.3725 23.3726C10.8758 35.8694 10.8758 56.1306 23.3725 68.6274C35.8693 81.1242 56.1306 81.1242 68.6274 68.6274Z" fill="#006CFF"/>
<g clip-path="url(#clip0)">
<path fill-rule="evenodd" clip-rule="evenodd" d="M44.5857 43.1716C45.3667 43.9526 46.6331 43.9526 47.4141 43.1716L50.9496 39.636C51.3402 39.2455 51.9733 39.2455 52.3639 39.636C52.7544 40.0266 52.7544 40.6597 52.3639 41.0503L48.8283 44.5858C48.0473 45.3668 48.0473 46.6332 48.8283 47.4142L52.3639 50.9497C52.7544 51.3403 52.7544 51.9734 52.3639 52.364C51.9733 52.7545 51.3402 52.7545 50.9496 52.364L47.4141 48.8284C46.6331 48.0474 45.3667 48.0474 44.5857 48.8284L41.0501 52.364C40.6596 52.7545 40.0265 52.7545 39.6359 52.364C39.2454 51.9734 39.2454 51.3403 39.6359 50.9497L43.1715 47.4142C43.9525 46.6332 43.9525 45.3668 43.1715 44.5858L39.6359 41.0503C39.2454 40.6597 39.2454 40.0266 39.6359 39.636C40.0265 39.2455 40.6596 39.2455 41.0501 39.636L44.5857 43.1716Z" fill="white"/>
</g>
<defs>
<clipPath id="clip0">
<rect width="24" height="24" fill="white" transform="translate(29.0293 46) rotate(-45)"/>
</clipPath>
</defs>
</svg>
