<svg width="91" height="91" viewBox="0 0 91 91" fill="none" xmlns="http://www.w3.org/2000/svg">
<rect width="91" height="91" fill="#F2F2F2"/>
<rect width="375" height="812" transform="translate(-86 -276)" fill="white"/>
<g clip-path="url(#clip0)">
<path fill-rule="evenodd" clip-rule="evenodd" d="M67.8823 67.8823C80.379 55.3855 80.379 35.1242 67.8823 22.6275C55.3855 10.1307 35.1242 10.1307 22.6274 22.6275C10.1306 35.1242 10.1306 55.3855 22.6274 67.8823C35.1242 80.3791 55.3855 80.3791 67.8823 67.8823Z" fill="#006CFF"/>
<g clip-path="url(#clip1)">
<path fill-rule="evenodd" clip-rule="evenodd" d="M43.8406 42.4265C44.6216 43.2075 45.8879 43.2075 46.669 42.4265L50.2045 38.8909C50.5951 38.5004 51.2282 38.5004 51.6187 38.8909C52.0093 39.2814 52.0093 39.9146 51.6187 40.3051L48.0832 43.8407C47.3022 44.6217 47.3022 45.888 48.0832 46.6691L51.6187 50.2046C52.0093 50.5952 52.0093 51.2283 51.6187 51.6188C51.2282 52.0094 50.5951 52.0094 50.2045 51.6188L46.669 48.0833C45.8879 47.3023 44.6216 47.3023 43.8406 48.0833L40.305 51.6188C39.9145 52.0094 39.2813 52.0094 38.8908 51.6188C38.5003 51.2283 38.5003 50.5952 38.8908 50.2046L42.4264 46.6691C43.2074 45.888 43.2074 44.6217 42.4264 43.8407L38.8908 40.3051C38.5003 39.9146 38.5003 39.2814 38.8908 38.8909C39.2813 38.5004 39.9145 38.5004 40.305 38.8909L43.8406 42.4265Z" fill="white"/>
</g>
</g>
<defs>
<clipPath id="clip0">
<rect width="64" height="64" fill="white" transform="translate(0 45.2549) rotate(-45)"/>
</clipPath>
<clipPath id="clip1">
<rect width="24" height="24" fill="white" transform="translate(28.2842 45.2549) rotate(-45)"/>
</clipPath>
</defs>
</svg>
